<?xml version="1.0" standalone="no"?>
<!DOCTYPE svg PUBLIC "-//W3C//DTD SVG 20010904//EN"
 "http://www.w3.org/TR/2001/REC-SVG-20010904/DTD/svg10.dtd">
<svg version="1.0" xmlns="http://www.w3.org/2000/svg"
 width="700.000000pt" height="700.000000pt" viewBox="0 0 700.000000 700.000000"
 preserveAspectRatio="xMidYMid meet">
<metadata>
Created by potrace 1.11, written by Peter Selinger 2001-2013
</metadata>
<g transform="translate(0.000000,700.000000) scale(0.100000,-0.100000)"
fill="#000000" stroke="none">
<path d="M3708 6723 l-216 -216 -207 209 -207 209 -340 0 -341 1 -163 -166
c-89 -91 -199 -203 -244 -249 l-81 -84 40 -41 c22 -23 247 -249 500 -503 l459
-463 -42 -10 c-187 -49 -332 -102 -511 -190 -557 -274 -991 -734 -1246 -1325
-54 -125 -107 -296 -145 -470 -10 -46 -33 -185 -40 -245 -16 -128 -8 -620 11
-650 2 -3 6 -30 10 -60 3 -30 19 -109 35 -175 245 -1020 1069 -1787 2105
-1960 216 -36 589 -41 765 -11 14 3 43 7 65 10 150 21 369 81 540 148 332 131
618 320 880 583 129 128 193 205 321 381 54 73 174 294 227 414 61 140 143
399 163 520 3 14 9 48 14 75 46 244 47 604 4 855 -4 19 -8 46 -10 60 -8 61
-56 245 -92 350 -99 292 -246 560 -433 796 -88 109 -281 305 -386 390 -156
125 -346 246 -527 333 -157 75 -438 173 -519 180 -5 1 -7 5 -5 11 2 5 228 235
503 510 l500 500 -117 118 c-64 64 -174 177 -245 250 l-128 132 -341 0 -340
-1 -216 -216z m20 -2063 c92 -12 248 -48 341 -79 127 -43 221 -88 380 -182
127 -75 348 -278 451 -413 153 -201 263 -430 320 -671 20 -80 22 -95 39 -215
10 -68 7 -383 -3 -435 -4 -16 -11 -57 -17 -90 -6 -33 -13 -71 -16 -85 -9 -50
-82 -257 -117 -333 -173 -368 -468 -670 -826 -845 -139 -67 -304 -125 -420
-145 -73 -14 -107 -20 -125 -24 -52 -13 -405 -11 -495 3 -100 15 -324 75 -374
99 -16 8 -34 15 -39 15 -18 0 -220 106 -295 154 -328 213 -579 533 -710 907
-67 192 -93 342 -96 556 -4 242 34 451 121 672 94 239 220 432 397 606 120
119 140 135 284 231 228 153 532 259 802 281 41 3 76 6 77 7 8 6 249 -4 321
-14z"/>
</g>
</svg>
